# xmcd
#
# Track frame offsets: 
#        150
#        18530
#        32477
#        46709
#        63383
#        77710
#        93558
#        108414
#        128348
#        147776
#        167680
#        184625
#
# Disc length: 2648 seconds
#
# Revision: 2
# Processed by: cddbd v1.5.2PL0 Copyright (c) Steve Scherf et al.
# Submitted via: ExactAudioCopy v0.99pb4
#
DISCID=8e0a560c
DTITLE=Ντίνου Κατερίνα - Σε όνειρο ζω
DYEAR=2004
DGENRE=Ethnic
TTITLE0=Δε με πειράζει
TTITLE1=Νύχτα σε καθρέφτη
TTITLE2=Τόση αγάπη
TTITLE3=Νίκος και Κατερίνα (Συμμετέχει ο Νίκος Ζιώγαλας)
TTITLE4=Σα να φταίω εγώ
TTITLE5=Ο χωρισμός (Συμμετέχει ο Γιώργος Αλουπογιάννης)
TTITLE6=Φεύγω και τίποτα
TTITLE7=Δεν περιμένω να ΄ρθεις
TTITLE8=Πως μπορείς (Συμμετέχει ο Γιώργος Αλουπογιάννης)
TTITLE9=Ταξίδι απ΄ το μπαλκόνι
TTITLE10=Τόση αγάπη (acoustic version)
TTITLE11=Σ' αναζητώ (summer miix)
EXTD=
EXTT0=
EXTT1=
EXTT2=
EXTT3=
EXTT4=
EXTT5=
EXTT6=
EXTT7=
EXTT8=
EXTT9=
EXTT10=
EXTT11=
PLAYORDER=
